# Blender v2.90.1 OBJ File: ''
# www.blender.org
mtllib pizza close.mtl
o Cube_Cube.002
v -1.000000 0.000000 1.000000
v -1.000000 0.150000 1.000000
v -1.000000 0.000000 -1.000000
v -1.000000 0.150000 -1.000000
v 1.000000 0.000000 1.000000
v 1.000000 0.150000 1.000000
v 1.000000 0.000000 -1.000000
v 1.000000 0.150000 -1.000000
v -1.000000 0.000000 -0.995000
v -1.000000 0.150000 -0.995000
v 1.000000 0.000000 -0.995000
v 1.000000 0.150000 -0.995000
v -1.000000 0.000000 0.995000
v 1.000000 0.150000 0.995000
v -1.000000 0.150000 0.995000
v 1.000000 0.000000 0.995000
v -1.000000 0.150000 -0.995000
v -1.000000 0.150000 0.995000
v 0.995970 0.157539 -0.995000
v 0.995970 0.008289 -0.995000
v 0.995970 0.157539 0.995000
v 0.995970 0.008289 0.995000
v -0.989510 0.157539 0.995000
v -0.989510 0.008289 0.995000
v -0.989510 0.157539 -0.995000
v -0.989510 0.008289 -0.995000
vt 0.375000 0.249375
vt 0.625000 0.249375
vt 0.625000 0.250000
vt 0.375000 0.250000
vt 0.625000 0.500000
vt 0.375000 0.500000
vt 0.375000 0.749375
vt 0.625000 0.749375
vt 0.625000 0.750000
vt 0.375000 0.750000
vt 0.625000 1.000000
vt 0.375000 1.000000
vt 0.125000 0.749375
vt 0.125000 0.750000
vt 0.125000 0.500000
vt 0.375000 0.500625
vt 0.125000 0.500625
vt 0.625000 0.500625
vt 0.375000 0.000625
vt 0.625000 0.000625
vt 0.375000 0.000000
vt 0.625000 0.000000
vt 0.375000 0.252674
vt 0.625000 0.252674
vt 0.625000 0.500000
vt 0.375000 0.500000
vt 0.625000 0.750000
vt 0.375000 0.750000
vt 0.127674 0.500000
vt 0.127674 0.750000
vt 0.125000 0.500000
vt 0.125000 0.750000
vt 0.625000 0.997326
vt 0.375000 0.997326
vn -1.0000 0.0000 0.0000
vn 0.0000 0.0000 -1.0000
vn 1.0000 0.0000 0.0000
vn 0.0000 0.0000 1.0000
vn 0.0000 -1.0000 0.0000
vn 0.0000 1.0000 0.0000
vn -0.5836 0.8120 0.0000
usemtl None
s off
f 9/1/1 10/2/1 4/3/1 3/4/1
f 3/4/2 4/3/2 8/5/2 7/6/2
f 16/7/3 14/8/3 6/9/3 5/10/3
f 5/10/4 6/9/4 2/11/4 1/12/4
f 13/13/5 16/7/5 5/10/5 1/14/5
f 3/15/5 7/6/5 11/16/5 9/17/5
f 7/6/3 8/5/3 12/18/3 11/16/3
f 13/19/1 15/20/1 10/2/1 9/1/1
f 1/21/1 2/22/1 15/20/1 13/19/1
f 9/17/5 11/16/5 16/7/5 13/13/5
f 11/16/3 12/18/3 14/8/3 16/7/3
f 23/23/4 24/24/4 22/25/4 21/26/4
f 21/26/3 22/25/3 20/27/3 19/28/3
f 23/29/6 21/26/6 19/28/6 25/30/6
f 18/31/7 23/29/7 25/30/7 17/32/7
f 19/28/2 20/27/2 26/33/2 25/34/2
l 13 24
